<svg aria-hidden="true" style="position: absolute; width: 0; height: 0; overflow: hidden;" version="1.1" xmlns="http://www.w3.org/2000/svg" xmlns:xlink="http://www.w3.org/1999/xlink">
<defs>

<!-- user -->
<symbol id="icon-user" viewBox="0 0 30 32">
    <path d="M15.238 16c4.208 0 7.619-3.411 7.619-7.619s-3.411-7.619-7.619-7.619c-4.208 0-7.619 3.411-7.619 7.619s3.411 7.619 7.619 7.619z"></path>
    <path d="M20.372 18.54h-10.268c-1.669 0.002-3.269 0.666-4.449 1.846s-1.844 2.78-1.846 4.449v1.832c0 2.525 2.047 4.571 4.571 4.571h13.714c2.525 0 4.571-2.047 4.571-4.571v-1.832c-0.002-1.669-0.666-3.269-1.846-4.449s-2.78-1.844-4.449-1.846z"></path>
</symbol>

<!-- arrowRigth -->
<symbol id="icon-arrowRight" viewBox="0 0 32 32">
    <path d="M24.357 13.367l-4.781-4.781c-0.375-0.375-0.884-0.586-1.414-0.585s-1.039 0.211-1.414 0.586c-0.375 0.375-0.586 0.884-0.585 1.414s0.211 1.039 0.586 1.414l3.252 3.252h-11.724c-0.53 0-1.039 0.211-1.414 0.586s-0.586 0.884-0.586 1.414c0 0.531 0.211 1.039 0.586 1.414s0.884 0.586 1.414 0.586h11.724l-3.252 3.252c-0.375 0.375-0.586 0.884-0.586 1.414s0.211 1.039 0.585 1.414c0.375 0.375 0.884 0.586 1.414 0.586s1.039-0.211 1.414-0.586l4.781-4.781c0.874-0.876 1.364-2.063 1.364-3.3s-0.491-2.424-1.364-3.3z"></path>
</symbol>

<!-- social Icon Telegram / facebook / twitter / mailer -->
<symbol id="icon-telegram" viewBox="0 0 32 32">
    <path fill="#2c98f0" style="fill: var(--color1, #2c98f0)" d="M16 0c-4.345 0-4.891 0.019-6.597 0.096-2.473 0.113-4.929 0.801-6.717 2.589-1.795 1.795-2.476 4.245-2.589 6.717-0.077 1.707-0.096 2.252-0.096 6.597s0.019 4.891 0.096 6.597c0.113 2.471 0.804 4.933 2.589 6.717 1.793 1.793 4.248 2.476 6.717 2.589 1.707 0.077 2.252 0.096 6.597 0.096s4.891-0.019 6.597-0.096c2.472-0.113 4.931-0.803 6.717-2.589 1.796-1.796 2.476-4.245 2.589-6.717 0.077-1.707 0.096-2.252 0.096-6.597s-0.019-4.891-0.096-6.597c-0.113-2.473-0.803-4.931-2.589-6.717-1.791-1.791-4.252-2.477-6.717-2.589-1.707-0.077-2.252-0.096-6.597-0.096zM24.033 9.752c-0.255 2.684-1.361 9.2-1.923 12.207-0.238 1.273-0.707 1.699-1.16 1.74-0.78 0.072-1.412-0.378-2.114-0.879-0.186-0.132-0.376-0.268-0.575-0.398-0.786-0.515-1.392-0.928-2.002-1.343-0.549-0.374-1.1-0.749-1.788-1.203-1.443-0.951-0.839-1.533-0.034-2.309 0.13-0.126 0.266-0.256 0.399-0.395 0.060-0.062 0.353-0.335 0.766-0.719 1.316-1.224 3.849-3.579 3.913-3.852 0.010-0.045 0.021-0.212-0.079-0.3s-0.246-0.058-0.351-0.034c-0.15 0.034-2.537 1.612-7.163 4.733-0.678 0.465-1.292 0.692-1.842 0.681-0.606-0.013-1.772-0.342-2.639-0.625-0.126-0.041-0.25-0.080-0.368-0.117-0.882-0.277-1.532-0.482-1.467-0.998 0.038-0.306 0.458-0.618 1.262-0.938 4.95-2.156 8.251-3.579 9.902-4.266 4.716-1.961 5.695-2.302 6.335-2.313 0.801-0.011 0.993 0.649 0.928 1.329z"></path>
</symbol>

<symbol id="icon-twitter" viewBox="0 0 32 32">
    <path fill="#2c98f0" style="fill: var(--color1, #2c98f0)" d="M9.403 0.096c-2.473 0.113-4.929 0.801-6.717 2.589-1.795 1.795-2.476 4.245-2.589 6.717-0.077 1.707-0.096 2.252-0.096 6.597s0.019 4.891 0.096 6.597c0.113 2.471 0.804 4.933 2.589 6.717 1.793 1.793 4.248 2.476 6.717 2.589 1.707 0.077 2.252 0.096 6.597 0.096s4.891-0.019 6.597-0.096c2.472-0.113 4.931-0.803 6.717-2.589 1.796-1.796 2.476-4.245 2.589-6.717 0.077-1.707 0.096-2.252 0.096-6.597s-0.019-4.891-0.096-6.597c-0.113-2.473-0.803-4.931-2.589-6.717-1.791-1.791-4.252-2.477-6.717-2.589-1.707-0.077-2.252-0.096-6.597-0.096s-4.891 0.019-6.597 0.096zM23.965 12.505c0 5.338-4.128 11.495-11.675 11.495v-0.003c-2.23 0.003-4.413-0.626-6.29-1.812 0.325 0.038 0.651 0.057 0.977 0.058 1.848 0.002 3.643-0.608 5.096-1.733-1.755-0.032-3.296-1.16-3.833-2.806 0.614 0.117 1.248 0.094 1.852-0.069-1.914-0.381-3.291-2.037-3.292-3.959v-0.051c0.571 0.313 1.21 0.486 1.863 0.505-1.803-1.185-2.36-3.546-1.271-5.392 2.084 2.523 5.158 4.057 8.457 4.221-0.331-1.403 0.122-2.874 1.187-3.86 1.653-1.53 4.252-1.451 5.806 0.175 0.919-0.178 1.8-0.51 2.606-0.981-0.307 0.936-0.948 1.73-1.804 2.235 0.813-0.095 1.608-0.309 2.356-0.636-0.551 0.811-1.244 1.52-2.047 2.091 0.012 0.173 0.012 0.347 0.012 0.523z"></path>
</symbol>

<symbol id="icon-facebook" viewBox="0 0 32 32">
    <path fill="#2c98f0" style="fill: var(--color1, #2c98f0)" d="M9.403 0.096c1.707-0.077 2.252-0.096 6.597-0.096s4.891 0.019 6.597 0.096c2.465 0.112 4.927 0.799 6.717 2.589 1.787 1.787 2.476 4.244 2.589 6.717 0.077 1.707 0.096 2.252 0.096 6.597s-0.019 4.891-0.096 6.597c-0.113 2.472-0.793 4.921-2.589 6.717-1.787 1.787-4.245 2.476-6.717 2.589-1.707 0.077-2.252 0.096-6.597 0.096-0.085 0-0.168 0-0.25 0v-9.72h2.775c0.285 0.008 0.565-0.078 0.793-0.242s0.389-0.398 0.457-0.662l0.625-2.38c0.046-0.178 0.049-0.364 0.007-0.543s-0.126-0.347-0.247-0.49c-0.121-0.143-0.275-0.257-0.45-0.334s-0.367-0.114-0.559-0.108h-3.4v-3.57c0-0.316 0.132-0.618 0.366-0.841s0.552-0.348 0.884-0.348h3.75c0.331 0 0.649-0.125 0.884-0.348s0.366-0.526 0.366-0.841v-2.38c0-0.316-0.132-0.618-0.366-0.841s-0.552-0.349-0.884-0.349h-3.75c-1.658 0-3.247 0.627-4.419 1.743s-1.831 2.629-1.831 4.207v3.57h-2.5c-0.332 0-0.649 0.125-0.884 0.349s-0.366 0.526-0.366 0.841v2.38c0 0.316 0.132 0.618 0.366 0.841s0.552 0.349 0.884 0.349h2.5v9.679c-0.434-0.014-0.839-0.032-1.347-0.055-2.469-0.113-4.924-0.796-6.717-2.589-1.785-1.784-2.476-4.247-2.589-6.717-0.077-1.707-0.096-2.252-0.096-6.597s0.019-4.891 0.096-6.597c0.113-2.472 0.795-4.923 2.589-6.717 1.788-1.788 4.244-2.476 6.717-2.589z"></path>
</symbol>

<symbol id="icon-mailer" viewBox="0 0 32 32">
    <path fill="#2c98f0" style="fill: var(--color1, #2c98f0)" d="M21.023 10.816c0.503 0.579 0.753 1.36 0.753 2.345l-0.001-0.001v4.817h-1.907v-4.675c0-0.985-0.415-1.485-1.245-1.485-0.917 0-1.375 0.593-1.375 1.767v2.558h-1.898v-2.558c0-1.173-0.459-1.767-1.376-1.767-0.83 0-1.244 0.5-1.244 1.485v4.674h-1.908v-4.815c0-0.985 0.25-1.766 0.754-2.345 0.519-0.578 1.199-0.875 2.043-0.875 0.976 0 1.715 0.376 2.204 1.126l0.476 0.797 0.475-0.797c0.489-0.75 1.228-1.126 2.205-1.126 0.844 0 1.523 0.297 2.043 0.875z"></path>
    <path fill="#2c98f0" style="fill: var(--color1, #2c98f0)" d="M9.403 0.096c1.707-0.077 2.252-0.096 6.597-0.096s4.891 0.019 6.597 0.096c2.465 0.112 4.927 0.799 6.717 2.589 1.787 1.787 2.476 4.244 2.589 6.717 0.077 1.707 0.096 2.252 0.096 6.597s-0.019 4.891-0.096 6.597c-0.113 2.472-0.793 4.921-2.589 6.717-1.787 1.787-4.245 2.476-6.717 2.589-1.707 0.077-2.252 0.096-6.597 0.096s-4.891-0.019-6.597-0.096c-2.469-0.113-4.924-0.796-6.717-2.589-1.785-1.784-2.476-4.247-2.589-6.717-0.077-1.707-0.096-2.252-0.096-6.597s0.019-4.891 0.096-6.597c0.113-2.472 0.795-4.923 2.589-6.717 1.788-1.788 4.244-2.476 6.717-2.589zM19.938 20.807c2.297-0.274 4.297-1.69 4.549-2.983 0.397-2.038 0.364-4.972 0.364-4.972 0-3.977-2.606-5.143-2.606-5.143-1.314-0.603-3.57-0.858-5.913-0.876h-0.057c-2.345 0.019-4.599 0.273-5.912 0.876 0 0-2.606 1.165-2.606 5.143 0 0.24-0.001 0.493-0.002 0.756-0.004 0.733-0.007 1.547 0.013 2.397 0.094 3.89 0.713 7.723 4.309 8.675 1.658 0.438 3.082 0.53 4.228 0.468 2.079-0.116 3.247-0.743 3.247-0.743l-0.070-1.509c0 0-1.485 0.469-3.153 0.413-1.654-0.058-3.399-0.179-3.667-2.209-0.024-0.178-0.037-0.369-0.037-0.568 0 0 1.623 0.396 3.679 0.49 1.258 0.059 2.437-0.073 3.635-0.216z"></path>
</symbol>

<!-- iconClose -->
<symbol id="icon-close" viewBox="0 0 32 32">
    <path fill="#fff" style="fill: var(--color1, #fff)" d="M4.687 4.686c-0.783 0.783-0.783 2.046 0 2.828l19.799 19.799c0.782 0.783 2.046 0.783 2.828 0s0.782-2.046 0-2.828l-19.799-19.799c-0.783-0.783-2.046-0.783-2.828 0z"></path>
    <path fill="#fff" style="fill: var(--color1, #fff)" d="M27.315 4.686c0.782 0.783 0.782 2.046 0 2.828l-19.799 19.799c-0.783 0.783-2.046 0.783-2.828 0s-0.783-2.046 0-2.828l19.799-19.799c0.783-0.783 2.046-0.783 2.829 0z"></path>
</symbol>

</defs>
</svg>